<?xml version="1.0" encoding="utf-8"?>
<svg xmlns="http://www.w3.org/2000/svg" width="500" zoomAndPan="magnify" viewBox="0 0 375 374.999991" height="500" preserveAspectRatio="xMidYMid meet" version="1.0">
  <rect x="-37.5" width="450" fill="#ffffff" y="-37.499999" height="449.999989" fill-opacity="1"/>
  <rect x="-37.5" width="450" y="-37.499999" height="449.999989" fill-opacity="1" style="fill: rgb(255, 255, 255);"/>
  <path style="stroke-width: 0px; stroke: currentcolor; paint-order: stroke; fill: rgb(0, 122, 255);" d="M 49.337 314.598 L 98.215 301.588 L 127.636 185.271 L 214.1 268.359 L 293.763 247.202 C 293.763 247.202 327.572 236.134 327.629 197.924 C 327.693 155.309 285.236 144.665 285.236 144.665 C 285.236 144.665 302.295 131.252 296.951 101.799 C 288.883 57.335 233.719 66.441 233.719 66.441 L 124.464 94.679 L 156.157 126.179 L 233.668 106.805 C 233.668 106.805 246.445 102.812 252.27 118.923 C 257.479 133.33 242.144 140.599 242.155 140.61 C 242.202 140.657 185.617 155.18 185.57 155.18 C 185.523 155.18 217.371 187.164 217.423 187.267 C 217.452 187.324 252.767 177.64 252.767 177.64 C 252.767 177.64 274.438 173.968 278.454 191.025 C 282.862 209.751 264.112 214.532 264.123 214.532 C 264.17 214.532 232.231 225.117 232.231 225.117 C 232.231 225.117 106.294 99.895 106.245 99.846 C 106.196 99.797 49.161 315.337 49.337 314.598 Z"/>
</svg>
